<svg xmlns="http://www.w3.org/2000/svg" viewBox="0 0 127.14 96.36">
    <g id="Discord_Logos" data-name="Blur Logos">
        <g id="Blur" data-name="Blur Logo">
            <path d="M14.1136 17.1631H12.4849V17.6567H14.1136V17.1631Z" fill="none"></path>
            <path d="M14.1136 16.4727H12.4849V16.9861H14.1136V16.4727Z" fill="#000000"></path>
            <path d="M14.1136 13.7866H12.4849V14.2803H14.1136V13.7866Z" fill="#000000"></path>
            <path d="M14.1136 14.4585H12.4849V14.9521H14.1136V14.4585Z" fill="#000000"></path>
            <path d="M18.1856 12.9182L17.6894 12.4048H12.4849V12.9182H18.1856Z" fill="#000000"></path>
            <path d="M12.4849 13.0957V13.5894H18.8642L18.363 13.0957H12.4849Z" fill="#000000"></path>
            <path d="M17.3677 14.4585V14.7271L17.1387 14.9521H19.0001V14.4585H17.3677Z" fill="#000000"></path>
            <path d="M12.4849 15.1299V15.6433H18.4216L18.9224 15.1299H12.4849Z" fill="#000000"></path>
            <path d="M17.061 13.7866L17.3561 14.0741V14.2803H19.0001V13.7866H17.061Z" fill="#000000"></path>
            <path d="M12.4849 15.8013V16.3147H18.9224L18.4225 15.8013H12.4849Z" fill="#000000"></path>
            <path d="M18.9997 18.5063H17.3516V19H18.9997V18.5063Z" fill="#000000"></path>
            <path d="M14.1136 18.5063H12.4849V19H14.1136V18.5063Z" fill="#000000"></path>
            <path d="M17.1387 16.4727L17.3569 16.6942V16.9861H19.0001V16.4727H17.1387Z" fill="#000000"></path>
            <path d="M14.1136 17.8354H12.4849V18.3488H14.1136V17.8354Z" fill="#000000"></path>
            <path d="M18.9997 17.1631H17.3516V17.6567H18.9997V17.1631Z" fill="#000000"></path>
            <path d="M18.9997 17.8354H17.3516V18.3488H18.9997V17.8354Z" fill="#000000"></path>
            <path d="M14.2349 9.71875H12.4849V10.2322H14.7341L14.2349 9.71875Z" fill="#000000"></path>
            <path d="M14.1136 8.37695H12.4849V8.89035H14.1136V8.37695Z" fill="#000000"></path>
            <path d="M14.1136 6.34277H12.4849V6.85617H14.1136V6.34277Z" fill="#000000"></path>
            <path d="M14.1136 7.70508H12.4849V8.21848H14.1136V7.70508Z" fill="#000000"></path>
            <path d="M14.1136 7.03418H12.4849V7.52783H14.1136V7.03418Z" fill="#000000"></path>
            <path d="M14.1136 9.04785H12.4849V9.56125H14.1136V9.04785Z" fill="#000000"></path>
            <path d="M14.1136 5H12.4849V5.49365H14.1136V5Z" fill="#000000"></path>
            <path d="M13.2988 11.1016L13.7836 11.5755H18.9801V11.1016H13.2988Z" fill="#000000"></path>
            <path d="M14.1136 5.6709H12.4849V6.16455H14.1136V5.6709Z" fill="#000000"></path>
            <path d="M18.9807 10.4102H12.6401L13.14 10.9038L18.9807 10.9038V10.4102Z" fill="#000000"></path>
            <path d="M9.86976 9.26941V9.56125H11.4959V9.04785H9.65381L9.86976 9.26941Z" fill="#000000"></path>
            <path d="M9.8674 6.64174V6.85617H11.4953V6.34277H9.57568L9.8674 6.64174Z" fill="#000000"></path>
            <path d="M11.4952 7.52783V7.03418H9.86277V7.30282L9.63379 7.52783H11.4952Z" fill="#000000"></path>
            <path d="M11.4953 10.2322V9.71875H9.87765V9.921L9.57568 10.2322H11.4953Z" fill="#000000"></path>
            <path d="M10.7007 5.49365L10.2041 5H5V5.49365H10.7007Z" fill="#000000"></path>
            <path d="M5 11.1016V11.5755H10.2152L10.7007 11.1016H5Z" fill="#000000"></path>
            <path d="M6.62877 6.34277H5V6.85617H6.62877V6.34277Z" fill="#000000"></path>
            <path d="M10.9367 8.21848L11.4375 7.70508H5V8.21848H10.9367Z" fill="#000000"></path>
            <path d="M11.4375 8.89035L10.9376 8.37695H5V8.89035H11.4375Z" fill="#000000"></path>
            <path d="M6.62877 9.04785H5V9.56125H6.62877V9.04785Z" fill="#000000"></path>
            <path d="M5 6.16455H11.3794L10.8781 5.6709H5V6.16455Z" fill="#000000"></path>
            <path d="M6.62877 7.03418H5V7.52783H6.62877V7.03418Z" fill="#000000"></path>
            <path d="M6.62877 9.71875H5V10.2322H6.62877V9.71875Z" fill="#000000"></path>
            <path d="M10.8593 10.9038L11.36 10.4102H5V10.9038H10.8593Z" fill="#000000"></path>
            <path d="M6.75 17.1631H5V17.6567H7.24926L6.75 17.1631Z" fill="#000000"></path>
            <path d="M11.4956 13.0957H9.88623V13.5894H11.4956V13.0957Z" fill="#000000"></path>
            <path d="M11.4956 14.4585H9.88623V14.9521H11.4956V14.4585Z" fill="#000000"></path>
            <path d="M11.4956 15.1299H9.88623V15.6433H11.4956V15.1299Z" fill="#000000"></path>
            <path d="M11.4956 15.8013H9.88623V16.3147H11.4956V15.8013Z" fill="#000000"></path>
            <path d="M9.74618 17.1631L9.24658 17.6567H11.4958V17.1631H9.74618Z" fill="#000000"></path>
            <path d="M6.62877 13.7866H5V14.2803H6.62877V13.7866Z" fill="#000000"></path>
            <path d="M6.62877 13.0957H5V13.5894H6.62877V13.0957Z" fill="#000000"></path>
            <path d="M11.4956 13.7866H9.88623V14.2803H11.4956V13.7866Z" fill="#000000"></path>
            <path d="M6.62877 16.4727H5V16.9861H6.62877V16.4727Z" fill="#000000"></path>
            <path d="M6.62877 15.8013H5V16.3147H6.62877V15.8013Z" fill="#000000"></path>
            <path d="M6.62877 15.1299H5V15.6433H6.62877V15.1299Z" fill="#000000"></path>
            <path d="M11.4956 16.4727H9.88623V16.9861H11.4956V16.4727Z" fill="#000000"></path>
            <path d="M6.62877 14.4585H5V14.9521H6.62877V14.4585Z" fill="#000000"></path>
            <path d="M11.4956 12.4048H9.88623V12.9182H11.4956V12.4048Z" fill="#000000"></path>
            <path d="M6.62877 12.4048H5V12.9182H6.62877V12.4048Z" fill="#000000"></path>
            <path d="M5.81494 18.5063L6.30122 19H10.2154L10.7013 18.5063H5.81494Z" fill="#000000"></path>
            <path d="M11.3601 17.8354H5.15527L5.65527 18.3488H10.8601L11.3601 17.8354Z" fill="#000000"></path>
        </g>
    </g>
</svg>